<svg width="170" height="170" viewBox="0 0 170 170" fill="none" xmlns="http://www.w3.org/2000/svg">
<circle cx="85" cy="85" r="85" fill="#0F9D58"/>
<path d="M50.0267 49.4167H119.923L115.144 44.3333H54.1442L50.0267 49.4167V49.4167ZM128.412 50.5858C129.886 52.3142 130.75 54.5 130.75 57.0417V120.583C130.75 123.28 129.679 125.866 127.772 127.772C125.866 129.679 123.28 130.75 120.583 130.75H49.4167C46.7203 130.75 44.1344 129.679 42.2277 127.772C40.3211 125.866 39.25 123.28 39.25 120.583V57.0417C39.25 54.5 40.1142 52.3142 41.5883 50.5858L48.6033 42.0458C50.0267 40.3175 52.1108 39.25 54.5 39.25H115.5C117.889 39.25 119.973 40.3175 121.346 42.0458L128.412 50.5858V50.5858ZM54.5 115.5H85V100.25H54.5V115.5Z" fill="white"/>
</svg>
