<svg width="170" height="170" viewBox="0 0 170 170" fill="none" xmlns="http://www.w3.org/2000/svg">
<circle cx="85" cy="85" r="85" fill="#CF0000"/>
<path d="M135.828 64.6667C135.829 63.7442 135.577 62.839 135.101 62.0488L121.331 39.0975C120.423 37.5971 119.145 36.3554 117.619 35.4919C116.094 34.6283 114.371 34.172 112.618 34.1667H57.3721C53.824 34.1667 50.4842 36.0577 48.6593 39.1026L34.8885 62.0488C34.4125 62.839 34.1611 63.7442 34.1616 64.6667C34.1616 69.7754 36.1238 74.3962 39.245 77.9749V125.667C39.245 127.015 39.7805 128.308 40.7338 129.261C41.6871 130.214 42.9801 130.75 44.3283 130.75H84.995C86.3431 130.75 87.6361 130.214 88.5894 129.261C89.5427 128.308 90.0783 127.015 90.0783 125.667V100.25H110.412V125.667C110.412 127.015 110.947 128.308 111.9 129.261C112.854 130.214 114.147 130.75 115.495 130.75H125.662C127.01 130.75 128.303 130.214 129.256 129.261C130.209 128.308 130.745 127.015 130.745 125.667V77.9749C133.866 74.3962 135.828 69.7754 135.828 64.6667V64.6667ZM125.58 65.9426C125.268 68.3974 124.071 70.6541 122.215 72.2905C120.359 73.927 117.97 74.8309 115.495 74.8334C109.888 74.8334 105.328 70.2736 105.328 64.6667C105.328 64.321 105.201 64.016 105.13 63.6907L105.232 63.6704L101.363 44.3334H112.618L125.58 65.9426V65.9426ZM74.8639 64.9971L78.9915 44.3334H90.9933L95.126 64.9971C94.9481 70.4515 90.485 74.8334 84.995 74.8334C79.505 74.8334 75.0418 70.4515 74.8639 64.9971V64.9971ZM57.3721 44.3334H68.6266L64.7633 63.6704L64.865 63.6907C64.7887 64.016 64.6616 64.321 64.6616 64.6667C64.6616 70.2736 60.1019 74.8334 54.495 74.8334C52.0203 74.8309 49.6314 73.927 47.7751 72.2905C45.9188 70.6541 44.7223 68.3974 44.4096 65.9426L57.3721 44.3334ZM74.8283 105.333H54.495V90.0834H74.8283V105.333Z" fill="white"/>
</svg>
