<svg width="170" height="170" viewBox="0 0 170 170" fill="none" xmlns="http://www.w3.org/2000/svg">
<circle cx="85" cy="85" r="85" fill="#0F9D58"/>
<path d="M129.591 71.2641L122.637 50.4021C121.628 47.3647 119.688 44.7225 117.092 42.8509C114.496 40.9792 111.376 39.9734 108.175 39.9762H61.8252C58.6246 39.9734 55.5046 40.9792 52.9084 42.8509C50.3122 44.7225 48.3719 47.3647 47.3631 50.4021L40.4091 71.2641C38.5599 72.0379 36.9807 73.341 35.87 75.0098C34.7593 76.6785 34.1667 78.6383 34.1667 80.6429V106.06C34.1667 109.811 36.2204 113.054 39.2501 114.818V126.393C39.2501 127.741 39.7856 129.034 40.739 129.987C41.6923 130.941 42.9852 131.476 44.3334 131.476H49.4167C50.7649 131.476 52.0579 130.941 53.0112 129.987C53.9645 129.034 54.5001 127.741 54.5001 126.393V116.226H115.5V126.393C115.5 127.741 116.036 129.034 116.989 129.987C117.942 130.941 119.235 131.476 120.583 131.476H125.667C127.015 131.476 128.308 130.941 129.261 129.987C130.215 129.034 130.75 127.741 130.75 126.393V114.818C132.292 113.934 133.574 112.658 134.467 111.121C135.359 109.583 135.83 107.837 135.833 106.06V80.6429C135.833 78.6383 135.241 76.6785 134.13 75.0098C133.019 73.341 131.44 72.0379 129.591 71.2641ZM61.8252 50.1429H108.17C110.361 50.1429 112.303 51.5357 112.994 53.6199L118.616 70.4762H51.384L57.0011 53.6199C57.3384 52.6072 57.9858 51.7265 58.8517 51.1024C59.7175 50.4783 60.7578 50.1426 61.8252 50.1429V50.1429ZM51.9584 100.976C50.9568 100.976 49.965 100.778 49.0397 100.395C48.1144 100.011 47.2737 99.4489 46.5657 98.7403C45.8576 98.0318 45.2961 97.1908 44.9131 96.2652C44.53 95.3397 44.3331 94.3478 44.3334 93.3461C44.3337 92.3444 44.5314 91.3527 44.915 90.4274C45.2986 89.5021 45.8607 88.6614 46.5693 87.9534C47.2778 87.2453 48.1188 86.6838 49.0444 86.3008C49.9699 85.9177 50.9618 85.7208 51.9635 85.7211C53.9864 85.7218 55.9263 86.526 57.3562 87.957C58.7862 89.3879 59.5892 91.3282 59.5885 93.3512C59.5878 95.3741 58.7836 97.314 57.3526 98.7439C55.9217 100.174 53.9814 100.977 51.9584 100.976V100.976ZM118.042 100.976C117.04 100.976 116.048 100.778 115.123 100.395C114.198 100.011 113.357 99.4489 112.649 98.7403C111.941 98.0318 111.379 97.1908 110.996 96.2652C110.613 95.3397 110.416 94.3478 110.417 93.3461C110.417 92.3444 110.615 91.3527 110.998 90.4274C111.382 89.5021 111.944 88.6614 112.653 87.9534C113.361 87.2453 114.202 86.6838 115.128 86.3008C116.053 85.9177 117.045 85.7208 118.047 85.7211C120.07 85.7218 122.01 86.526 123.44 87.957C124.87 89.3879 125.673 91.3282 125.672 93.3512C125.671 95.3741 124.867 97.314 123.436 98.7439C122.005 100.174 120.065 100.977 118.042 100.976V100.976Z" fill="white"/>
</svg>
