<svg width="170" height="170" viewBox="0 0 170 170" fill="none" xmlns="http://www.w3.org/2000/svg">
<circle cx="85" cy="85" r="85" fill="#0F9D58"/>
<path d="M102.792 59.2631C108.203 62.3854 112.696 66.8777 115.819 72.2881C118.943 77.6986 120.586 83.8362 120.583 90.0834V130.75H99.3859C98.3357 133.726 96.3881 136.304 93.8115 138.127C91.235 139.95 88.1564 140.929 85.0001 140.929C81.8438 140.929 78.7652 139.95 76.1886 138.127C73.6121 136.304 71.6645 133.726 70.6143 130.75H49.4168V90.0834C49.4145 83.8362 51.0576 77.6986 54.1809 72.2881C57.3042 66.8777 61.7974 62.3854 67.2084 59.2631C66.3732 57.7629 65.7326 56.1623 65.3022 54.5H49.4168V44.3334H65.3073C66.438 39.9706 68.9854 36.1069 72.5497 33.3486C76.1139 30.5904 80.4932 29.0938 85.0001 29.0938C89.507 29.0938 93.8862 30.5904 97.4505 33.3486C101.015 36.1069 103.562 39.9706 104.693 44.3334H120.583V54.5H104.693C104.263 56.161 103.626 57.7613 102.797 59.2631H102.792ZM85.0001 95.1667C83.6519 95.1667 82.3589 95.7023 81.4056 96.6556C80.4523 97.6089 79.9168 98.9018 79.9168 100.25V125.667C79.9168 127.015 80.4523 128.308 81.4056 129.261C82.3589 130.214 83.6519 130.75 85.0001 130.75C86.3483 130.75 87.6412 130.214 88.5945 129.261C89.5479 128.308 90.0834 127.015 90.0834 125.667V100.25C90.0834 98.9018 89.5479 97.6089 88.5945 96.6556C87.6412 95.7023 86.3483 95.1667 85.0001 95.1667ZM85.0001 59.5834C87.6965 59.5834 90.2824 58.5122 92.189 56.6056C94.0956 54.699 95.1667 52.1131 95.1667 49.4167C95.1667 46.7203 94.0956 44.1344 92.189 42.2278C90.2824 40.3212 87.6965 39.25 85.0001 39.25C82.3037 39.25 79.7178 40.3212 77.8112 42.2278C75.9045 44.1344 74.8334 46.7203 74.8334 49.4167C74.8334 52.1131 75.9045 54.699 77.8112 56.6056C79.7178 58.5122 82.3037 59.5834 85.0001 59.5834Z" fill="white"/>
</svg>
