<svg width="170" height="170" viewBox="0 0 170 170" fill="none" xmlns="http://www.w3.org/2000/svg">
<circle cx="85" cy="85" r="85" fill="#CF0000"/>
<path d="M49.432 47.6883C49.432 40.0836 55.6896 33.4346 63.7721 34.2327C90.0898 36.84 114.472 49.2235 132.102 68.9366C137.541 75.0011 135.849 84.0036 129.667 88.4821L127.517 90.0426L125.672 87.2976L125.631 87.2417C109.415 64.8395 83.0328 50.2605 53.2445 50.2605H49.432V47.6883V47.6883ZM119.419 91.6591L121.341 94.5211L101.277 109.085L100.25 109.847V120.532C100.25 121.881 99.7145 123.174 98.7612 124.127C97.8079 125.08 96.5149 125.616 95.1667 125.616C93.8186 125.616 92.5256 125.08 91.5723 124.127C90.619 123.174 90.0834 121.881 90.0834 120.532V120.227C90.0021 119.588 89.6806 119.003 89.184 118.591C88.6875 118.18 88.053 117.972 87.4092 118.011C86.7654 118.05 86.1604 118.332 85.7169 118.8C85.2733 119.268 85.0243 119.888 85.0204 120.532V128.163C85.0206 129.467 84.5194 130.721 83.6206 131.666C82.7218 132.611 81.4942 133.175 80.1916 133.24C78.889 133.305 77.6111 132.868 76.6223 132.017C75.6335 131.167 75.0094 129.969 74.8792 128.671L67.5592 133.958C59.9901 139.417 49.4117 134.013 49.4167 124.675L49.432 57.8804H53.2445C80.4607 57.8804 104.566 71.1835 119.419 91.6591V91.6591ZM69.7704 79.8658C71.1186 79.8658 72.4116 79.3302 73.3649 78.3769C74.3182 77.4236 74.8537 76.1307 74.8537 74.7825C74.8537 73.4343 74.3182 72.1413 73.3649 71.188C72.4116 70.2347 71.1186 69.6991 69.7704 69.6991C68.4222 69.6991 67.1293 70.2347 66.176 71.188C65.2226 72.1413 64.6871 73.4343 64.6871 74.7825C64.6871 76.1307 65.2226 77.4236 66.176 78.3769C67.1293 79.3302 68.4222 79.8658 69.7704 79.8658V79.8658ZM90.1037 95.1056C91.4519 95.1056 92.7449 94.5701 93.6982 93.6168C94.6515 92.6635 95.1871 91.3705 95.1871 90.0223C95.1871 88.6741 94.6515 87.3812 93.6982 86.4278C92.7449 85.4745 91.4519 84.939 90.1037 84.939C88.7556 84.939 87.4626 85.4745 86.5093 86.4278C85.556 87.3812 85.0204 88.6741 85.0204 90.0223C85.0204 91.3705 85.556 92.6635 86.5093 93.6168C87.4626 94.5701 88.7556 95.1056 90.1037 95.1056V95.1056ZM69.7704 110.345C71.1186 110.345 72.4116 109.81 73.3649 108.857C74.3182 107.903 74.8537 106.61 74.8537 105.262C74.8537 103.914 74.3182 102.621 73.3649 101.668C72.4116 100.714 71.1186 100.179 69.7704 100.179C68.4222 100.179 67.1293 100.714 66.176 101.668C65.2226 102.621 64.6871 103.914 64.6871 105.262C64.6871 106.61 65.2226 107.903 66.176 108.857C67.1293 109.81 68.4222 110.345 69.7704 110.345V110.345Z" fill="white"/>
</svg>
